<?xml version="1.0" encoding="UTF-8"?>
<svg id="BusinessTasklist" xmlns="http://www.w3.org/2000/svg" viewBox="0 0 1440 1440">
  <defs>
    <style>
      .cls-1, .cls-2 {
        fill: #fff;
      }

      .cls-3, .cls-2, .cls-4, .cls-5 {
        fill-rule: evenodd;
      }

      .cls-3, .cls-6 {
        fill: #0d0d0d;
      }

      .cls-7 {
        fill: #efbf96;
      }

      .cls-8, .cls-5 {
        fill: #fff2e7;
      }

      .cls-4, .cls-9 {
        fill: #a67c58;
      }
    </style>
  </defs>
  <path class="cls-8" d="M928.46,198.93c95.15,91.41,244.58,148.09,331.61,205.92,2.14,1.42,4.35,2.77,6.61,4,126.97,68.85,80.72-61.27,48.35-176.58-25.16-89.64-97.56-158.7-188.56-178.36-99.6-21.52-205.53-3.46-221.72,68.03-6.33,27.95,3.05,57.14,23.72,76.99Z"/>
  <path class="cls-8" d="M147.18,582.67c150.65-45.31,313.85-242.28,376.63-335.1,89.45-160.47-197.73,0-338.96,75.51-141.23,75.51-225.98,316.22-37.66,259.58Z"/>
  <path class="cls-8" d="M1406.9,1181.95c0,74.41-41.36,146.51-82.6,198.11-33.56,42-86.74,60.34-140.43,60.34H223.89c-53.88,0-91.5-76.45-100.8-129.65-16.5-94.41-103.17-199.7-88.27-360.98,21.85-236.56,170.42-308.84,325.54-398.64,155.12-89.8,54.62-221.22,321.17-300.08,266.55-78.85,548.4,181.8,539.66,424.92-8.74,243.13,185.71,278.17,185.71,505.97Z"/>
  <path class="cls-1" d="M999.04,1207.07c18.81,127.84,116.15,201.73,166.7,224.46,1.62,.73,3.33,1.07,5.11,1.07h14.25c8.47,0,14.71-7.94,12.42-16.1-38.96-138.65-129.3-202.25-183.43-222.1-8.32-3.05-16.34,3.91-15.05,12.68Z"/>
  <path class="cls-3" d="M1012.59,1198.49c-4.99-1.83-10.09,2.2-9.24,7.94,18.52,125.9,114.48,198.77,164.18,221.12,1.01,.45,2.11,.68,3.32,.68h14.25c5.7,0,9.7-5.29,8.22-10.55-38.55-137.2-127.81-199.78-180.73-219.19Zm-17.87,9.21c-1.74-11.79,9.2-21.68,20.87-17.4,55.34,20.29,146.76,84.91,186.13,225.02,3.1,11.04-5.37,21.64-16.62,21.64h-14.25c-2.34,0-4.67-.44-6.9-1.45-51.4-23.12-150.13-98.02-169.23-227.81Z"/>
  <path class="cls-3" d="M1077.4,1280.65c-13.48-13.86-25.66-24.96-36.34-34.45l5.79-6.52c12.59,11.19,27.37,24.71,43.92,42.36,12.29,13.1,25.56,28.47,39.62,46.85v-18.81h8.72v30.46c12.01,16.4,24.57,34.99,37.56,56.22,6.16,10.07,12.43,20.73,18.78,32.03l-7.6,4.28c-5.95-10.57-11.81-20.58-17.59-30.06l-28.01-4.71,1.45-8.6,20.46,3.44c-11.37-18.14-22.37-34.23-32.93-48.58-16.29-22.14-31.55-40.16-45.54-55.17h-28.32v-8.72h20.02Z"/>
  <path class="cls-6" d="M1151.65,985.07c-81.47,172.11-23.01,360.84,21.24,442.61,2.23,4.13,6.56,6.59,11.25,6.59h20.48c6.88,0,12.59-5.39,13.01-12.26,13.34-217.07-19.77-368.42-44.8-436.22-3.67-9.94-16.66-10.29-21.19-.72Z"/>
  <path class="cls-1" d="M1340.36,1083.17c-104.43,70.54-155.14,242.86-170.06,336.42-1.24,7.8,4.87,14.68,12.77,14.68h30.17c3.39,0,6.64-1.31,9.04-3.69,95.31-94.93,129.13-251.61,135.97-336.63,.8-9.96-9.6-16.38-17.88-10.78Z"/>
  <path class="cls-3" d="M1353.9,1093.61c.53-6.56-6.04-10.23-11.1-6.82l-2.44-3.62,2.44,3.62c-51.21,34.59-89.58,94.41-117.04,157.7-27.43,63.2-43.74,129.31-51.16,175.8-.81,5.04,3.13,9.63,8.46,9.63h30.17c2.27,0,4.41-.87,5.97-2.42,47.02-46.83,79.02-109.06,100.11-170.36,21.09-61.27,31.19-121.33,34.59-163.52Zm-15.97-14.05c11.51-7.77,25.74,1.39,24.67,14.75-3.45,42.82-13.68,103.61-35.03,165.67-21.35,62.03-53.92,125.6-102.21,173.7-3.24,3.23-7.62,4.96-12.12,4.96h-30.17c-10.46,0-18.76-9.16-17.08-19.73,7.51-47.07,24.01-113.9,51.77-177.89,27.73-63.9,66.93-125.51,120.16-161.45Z"/>
  <path class="cls-6" d="M1413.92,1271.56c-103.58,3.88-181.75,89.93-217.52,148.08-5.13,8.34,1.09,18.64,10.88,18.64h36.23c1.82,0,3.6-.37,5.26-1.12,67.96-30.92,137.07-101.83,174.12-146.51,6.57-7.92,1.33-19.47-8.96-19.09Z"/>
  <path class="cls-2" d="M1165.81,1013.14c-1.15,34.79-1.33,68.4-.76,100.48,.44,24.84,1.32,48.76,2.54,71.62l18.68-30.2,7.42,4.59-25.23,40.78c1.76,28.84,4.05,55.84,6.64,80.67,3.06,29.46,6.55,55.86,10.07,78.63l16.18-26.73,7.46,4.52-21.52,35.54c4.29,26,8.51,46.39,11.95,60.16l-8.46,2.12c-3.58-14.34-7.95-35.53-12.35-62.45-4.1-25.03-8.23-55.04-11.82-89.17l-31.52-27.41,5.73-6.58,24.51,21.31c-2.19-22.28-4.12-46.17-5.65-71.46-1.62-26.7-2.78-54.95-3.32-84.49l-22.01-32.49,7.23-4.89,14.55,21.49c-.29-27.77-.01-56.62,.97-86.33l8.72,.29Z"/>
  <path class="cls-3" d="M1285.23,1219.36c16.46-36.83,33.43-71.36,49.48-98.39l-7.5-4.45c-17.61,29.66-36.2,68.01-53.95,108.31-9.66,21.94-19.08,44.48-27.98,66.56l-7.39-37.54-8.56,1.68,9.99,50.77c-9.2,23.24-17.74,45.68-25.25,66.05-8.73,23.65-16.08,44.5-21.51,60.53l8.26,2.8c5.29-15.62,12.43-35.87,20.9-58.85l44.32-26.07-4.43-7.52-35.1,20.64c6.54-17.49,13.74-36.26,21.39-55.56,10.2-25.72,21.22-52.38,32.56-78.21l40.12-13.25-2.74-8.29-32.61,10.77Z"/>
  <path class="cls-2" d="M1399.06,1296.25c-23.93,10.37-48.26,24.55-71.46,40.27-14.62,9.9-28.77,20.41-42.08,30.93h22.85v8.72h-33.69c-30.84,25.25-56.11,49.64-70.54,65.08l-6.37-5.96c14.89-15.94,40.92-41.03,72.6-66.87,15.9-12.97,33.24-26.14,51.34-38.45l12.92-27.81,7.91,3.68-6.96,14.98c19.59-12.55,39.88-23.84,60.01-32.57l3.47,8.01Z"/>
  <path class="cls-1" d="M526.26,1164.9c-40.39,43.76,105.01,164.09,105.01,275.51h212.04c-10.77-6.75-29.08-28.76-16.16-62.8,16.16-42.54,115.11-58.75,94.91-103.32-20.2-44.57-66.64,0-111.07-26.34-44.43-26.34,4.04-50.65,62.6-109.4,58.56-58.75-46.45-52.67-90.88-30.38-44.43,22.28-42.41-18.23-36.35-103.32,6.06-85.08-30.29-153.96-60.58-137.76-30.29,16.2,20.19,202.58-12.11,182.32-32.31-20.26-64.62-93.19-74.72-24.31-10.1,68.88,64.62,176.25,32.31,184.35-32.31,8.1-54.53-99.26-105.01-44.57Z"/>
  <path class="cls-1" d="M536.61,402.43c0-12.04,9.76-21.81,21.81-21.81h802.47c12.04,0,21.81,9.76,21.81,21.81V1016.88c0,12.04-9.76,21.81-21.81,21.81H558.42c-12.04,0-21.81-9.76-21.81-21.81V402.43Z"/>
  <path class="cls-1" d="M643.09,432.24c0,12.39-10.05,22.44-22.45,22.44s-22.44-10.05-22.44-22.44,10.04-22.44,22.44-22.44,22.45,10.05,22.45,22.44Zm74.81,0c0,12.39-10.04,22.44-22.44,22.44s-22.45-10.05-22.45-22.44,10.05-22.44,22.45-22.44,22.44,10.05,22.44,22.44Zm74.81,0c0,12.39-10.05,22.44-22.45,22.44s-22.44-10.05-22.44-22.44,10.04-22.44,22.44-22.44,22.45,10.05,22.45,22.44Z"/>
  <path class="cls-4" d="M639.07,592.17c.37-14.37,11.93-26.27,26.52-26.27h103.01c13.97,0,25.65,11.03,25.9,25.15,.92,51.03-5.07,83.11-30.71,121.62-4.73,7.11-12.76,11.07-21.1,11.07h-96.97c-20.36,0-32.29-21.82-24.52-39.69,11.64-26.78,16.86-52.73,17.88-91.88Zm26.52-17.55c-9.65,0-17.55,7.91-17.8,17.77-1.04,39.97-6.4,67.08-18.6,95.13-5.62,12.93,3.31,27.49,16.52,27.49h96.97c5.62,0,10.84-2.66,13.84-7.18,24.34-36.57,30.15-66.71,29.25-116.63-.17-9.21-7.82-16.59-17.18-16.59h-103.01Zm189.43,129.26c.37-14.37,11.93-26.27,26.52-26.27h103.02c13.97,0,25.65,11.03,25.9,25.15,.92,51.03-5.08,83.11-30.71,121.62-4.74,7.11-12.76,11.07-21.1,11.07h-96.97c-20.37,0-32.29-21.82-24.52-39.69,11.64-26.78,16.86-52.73,17.87-91.88Zm26.52-17.55c-9.64,0-17.54,7.91-17.8,17.77-1.04,39.97-6.39,67.08-18.59,95.13-5.62,12.93,3.31,27.49,16.52,27.49h96.97c5.62,0,10.84-2.67,13.84-7.18,24.35-36.57,30.15-66.71,29.25-116.63-.16-9.21-7.81-16.59-17.18-16.59h-103.02Z"/>
  <path class="cls-5" d="M1138.29,624.59c.37-14.37,11.92-26.27,26.51-26.27h103.02c13.97,0,25.65,11.03,25.9,25.15,.92,51.03-5.07,83.1-30.71,121.61-4.74,7.11-12.76,11.07-21.1,11.07h-96.97c-20.36,0-32.29-21.82-24.52-39.69,11.64-26.78,16.86-52.73,17.88-91.88Zm26.51-17.55c-9.64,0-17.54,7.91-17.8,17.77-1.04,39.97-6.4,67.08-18.6,95.13-5.62,12.93,3.31,27.49,16.52,27.49h96.97c5.62,0,10.84-2.67,13.84-7.18,24.34-36.56,30.14-66.71,29.25-116.62-.16-9.21-7.81-16.59-17.18-16.59h-103.02Z"/>
  <path class="cls-9" d="M693.83,571c0-12.04,9.76-21.81,21.81-21.81h1.77c12.04,0,21.81,9.76,21.81,21.81v1.77c0,12.04-9.76,21.81-21.81,21.81h-1.77c-12.04,0-21.81-9.77-21.81-21.81v-1.77Zm215.96,111.71c0-12.04,9.76-21.8,21.8-21.8h1.77c12.04,0,21.8,9.76,21.8,21.8v1.77c0,12.04-9.76,21.8-21.8,21.8h-1.77c-12.04,0-21.8-9.76-21.8-21.8v-1.77Z"/>
  <path class="cls-8" d="M1193.06,603.42c0-12.04,9.76-21.81,21.8-21.81h1.77c12.04,0,21.81,9.76,21.81,21.81v1.77c0,12.04-9.76,21.8-21.81,21.8h-1.77c-12.04,0-21.8-9.76-21.8-21.8v-1.77Z"/>
  <path class="cls-4" d="M747.32,641.08h-68.07v-8.72h68.07v8.72Zm-11.34,38.9h-68.07v-8.72h68.07v8.72Zm227.3,72.82h-68.07v-8.72h68.07v8.72Zm-11.34,38.9h-68.07v-8.72h68.07v8.72Z"/>
  <path class="cls-5" d="M925.62,897.18h-278.78v-8.72h278.78v8.72Zm-141.93,51.87h-136.86v-8.72h136.86v8.72Z"/>
  <path class="cls-6" d="M889.87,696.82c0,20.47-16.6,37.07-37.07,37.07s-37.07-16.6-37.07-37.07,16.6-37.07,37.07-37.07,37.07,16.6,37.07,37.07Z"/>
  <path class="cls-1" d="M859.81,694.42h12.62v8.59h-12.62v13.43h-9.62v-13.43h-12.66v-8.59h12.66v-12.87h9.62v12.87Z"/>
  <path class="cls-6" d="M572.98,1439.48l-19.2-155.71-407.42-17.06-10.67,172.77h437.28Z"/>
  <path class="cls-7" d="M291.79,659.43l-8.53,44.8,8.53,46.92c22.04,2.85,66.98,8.54,70.39,8.54s28.44-21.33,40.53-32l-12.8-68.26c35.84-11.94,47.64-64.7,49.06-89.59,8.53-102.39-59.73-115.19-72.52-115.19s-93.85,0-104.52,85.32c-8.53,68.26,16.35,108.07,29.86,119.45Zm506.71,119.57c-8.91,13.13-44.34,49.37-48.4,55.85l15.96,37.23,43.7,10.15c9.84-13.95,37.96-28.45,44.65-50.21,5.35-17.41-15.12-41.06-25.14-44.9l30.6-41.92c4.08-5.59,2.93-13.43-2.59-17.61-5.4-4.09-13.06-3.22-17.4,1.97l-41.38,49.44Z"/>
  <path class="cls-3" d="M532.25,402.43c0-14.45,11.72-26.17,26.17-26.17h802.47c14.46,0,26.17,11.72,26.17,26.17V1016.88c0,14.46-11.71,26.17-26.17,26.17H558.42c-14.45,0-26.17-11.71-26.17-26.17V402.43Zm26.17-17.45c-9.64,0-17.44,7.81-17.44,17.45V1016.88c0,9.64,7.81,17.45,17.44,17.45h802.47c9.64,0,17.45-7.81,17.45-17.45V402.43c0-9.63-7.81-17.45-17.45-17.45H558.42Z"/>
  <path class="cls-6" d="M315.25,616.77c-8.53,49.48-20.62,54.75-25.6,51.19-59.73-38.39-58.28-161.07-21.33-202.64,34.13-38.39,59.73-23.46,130.12-40.53,70.39-17.06,93.85,12.8,81.05,51.19-18.42,55.27-76.79,25.6-91.72,32s-34.13,23.46-42.66,57.59c-8.53,34.13-12.8,27.73-19.2,8.53-6.4-19.2-23.46-46.93-36.26-12.8-10.24,27.3,12.8,48.35,25.6,55.46Z"/>
  <path class="cls-9" d="M131.43,1328.56c25.6,10.24,178.47,9.95,251.7,8.53,58.3,0,178.75-3.84,194.11-19.2,15.36-15.36,10.66-132.96,6.4-179.18,19.2,23.46,57.59,36.26,91.72,12.8,34.13-23.46,151.45-241.03,151.45-266.63s-49.06-68.25-70.39-68.25-117.32,117.31-132.25,106.65c-14.93-10.67-17.07-72.53-70.39-149.31-42.66-61.44-123.01-78.22-153.58-78.92-2.84,15.64-10.67,46.93-53.33,46.93s-60.44-31.29-66.12-46.93c-27.73,4.27-78.92,23.46-98.12,38.39-19.2,14.93-34.13,85.32-42.66,134.39-8.53,49.06-40.53,447.94-8.53,460.74Z"/>
  <path class="cls-1" d="M269.02,1119.79c6-4.03,14.13-2.44,18.16,3.56l95.05,141.4c4.03,6,2.44,14.13-3.56,18.16l-192.97,129.71c-6,4.03-14.13,2.44-18.16-3.56l-95.05-141.4c-4.03-6-2.44-14.12,3.56-18.16l192.97-129.71Z"/>
  <path class="cls-3" d="M266.59,1116.17c8-5.37,18.84-3.25,24.21,4.75l95.05,141.4c5.37,7.99,3.25,18.84-4.75,24.21l-192.97,129.71c-8,5.37-18.84,3.25-24.21-4.75l-95.05-141.4c-5.37-8-3.25-18.84,4.75-24.21l192.97-129.71Zm16.97,9.62c-2.69-4-8.11-5.06-12.11-2.38l-192.97,129.71c-4,2.69-5.06,8.11-2.37,12.1l95.05,141.4c2.69,4,8.11,5.06,12.11,2.37l192.97-129.71c4-2.69,5.06-8.11,2.37-12.1l-95.05-141.4Z"/>
  <path class="cls-7" d="M302.08,1277.37c-13.65-6.82-21.33-14.22-23.46-17.06-10.67,12.08-33.28,40.53-38.4,57.59-6.4,21.33,27.73,53.32,38.4,55.46,10.67,2.13,42.66-17.07,49.06-27.73,5.12-8.53-6.4-24.17-12.8-29.86,3.55-4.98,16.21-10.67,12.8-19.2-4.27-10.66-8.53-10.66-25.6-19.2Z"/>
  <path class="cls-9" d="M22.65,1000.07c55.46-157.84,125.14-243.17,159.98-266.63,98.97,44.37,71.1,156.43,44.79,206.91-14.93,24.89-44.79,81.91-44.79,110.92,0,36.26,113.05,179.18,106.65,209.04-6.4,29.86-51.19,66.12-70.39,61.86-19.2-4.27-117.32-91.72-172.78-166.38-44.37-59.73-34.13-128.69-23.46-155.71Z"/>
  <path class="cls-6" d="M566.58,927.54l17.06,213.31c6.83,5.12,19.91,14.93,25.6,17.06-1.71-17.06-29.16-160.69-42.66-230.37ZM24.78,995.8c15.64,24.17,42.23,90.87,23.46,164.25-19.91-21.33-52.47-84.04-23.46-164.25Z"/>
  <path class="cls-6" d="M583.64,1138.72c51.2-23.89,93.86-14.22,108.79-6.4-4.98,9.95-22.61,30.29-53.33,32-30.72,1.71-49.77-16.35-55.46-25.6Zm-373.28-83.19c-1.71-34.13,12.09-93.85,19.2-119.45-4.27,6.4-16.21,26.45-29.86,55.46-17.06,36.26-21.33,59.72-10.67,81.06,4.62,9.23,22.37,39.73,41.73,72.52l9.46-7.94c-15.04-30.53-28.76-59.52-29.86-81.64Z"/>
  <path class="cls-1" d="M355.4,1388.29l-14.93,53.33h14.93v-53.33Z"/>
  <path class="cls-6" d="M344.74,658.78c20.48,6.83,37.68,2.85,44.79,0l6.4,29.86c-27.3-3.41-45.51-22.04-51.19-29.86Z"/>
  <path class="cls-6" d="M536.61,402.43c0-12.04,9.76-21.81,21.81-21.81h802.47c12.04,0,21.81,9.76,21.81,21.81v85.17H536.61v-85.17Z"/>
</svg>