<?xml version="1.0" encoding="UTF-8"?>
<svg id="Layer_1" data-name="Layer 1" xmlns="http://www.w3.org/2000/svg" viewBox="0 0 1080 1080">
  <defs>
    <style>
      .cls-1 {
        fill: none;
        stroke-width: 4.09px;
      }

      .cls-1, .cls-2, .cls-3 {
        stroke: #000;
        stroke-miterlimit: 10;
      }

      .cls-2 {
        stroke-width: 7.07px;
      }

      .cls-3 {
        fill: #fff;
        stroke-width: 10px;
      }
    </style>
  </defs>
  <rect class="cls-3" x="25" y="25" width="1030" height="1030"/>
  <rect class="cls-2" x="25" y="25" width="56" height="1030"/>
  <rect class="cls-2" x="511.5" y="512.5" width="56" height="1030" transform="translate(-488 1567) rotate(-90)"/>
  <g>
    <path d="M485.38,172.34c0,1.47-.59,2.81-1.55,3.78-.96,.97-2.27,1.56-3.74,1.56h-65.14c-7.84,0-14.21,2.5-19.07,7.47-4.91,5.01-7.34,12.47-7.34,22.39V737.56c0,54.76-13.71,97.63-41.08,128.78-27.42,31.09-61.63,46.66-102.71,46.66-29.34,0-51.86-7.47-67.49-22.4-15.68-14.93-23.48-32.37-23.48-52.25,0-3.73,.21-6.23,.64-8h0c2.58-17.75,17.72-31.36,36.01-31.36,20.11,0,36.4,16.46,36.4,36.76,0,12.73-6.4,23.94-16.13,30.53-.38,1.45-.11,3.04,.71,4.36,3.82,6.07,9.06,10.8,15.73,14.12,7.8,3.85,17.61,5.83,29.35,5.83,25.4,0,45.94-10.67,61.62-31.91,15.64-21.29,23.48-60.65,23.48-118.15V207.71c0-10.04-1.97-17.5-5.86-22.51-3.94-5.02-10.78-7.53-20.54-7.53h-65.14c-2.92,0-5.28-2.39-5.28-5.34,0-1.47,.59-2.81,1.55-3.78,.96-.97,2.27-1.56,3.74-1.56h230.05c2.92,0,5.28,2.39,5.28,5.34Z"/>
    <line class="cls-1" x1="453.42" y1="234.07" x2="926.21" y2="234.07"/>
    <line class="cls-1" x1="453.42" y1="295.83" x2="926.21" y2="295.83"/>
    <line class="cls-1" x1="453.42" y1="357.59" x2="926.21" y2="357.59"/>
    <line class="cls-1" x1="453.42" y1="419.35" x2="926.21" y2="419.35"/>
    <line class="cls-1" x1="453.42" y1="481.11" x2="926.21" y2="481.11"/>
    <line class="cls-1" x1="453.42" y1="542.86" x2="926.21" y2="542.86"/>
    <line class="cls-1" x1="453.42" y1="604.62" x2="926.21" y2="604.62"/>
    <line class="cls-1" x1="453.42" y1="666.38" x2="926.21" y2="666.38"/>
    <line class="cls-1" x1="453.42" y1="728.54" x2="926.21" y2="728.54"/>
    <line class="cls-1" x1="453.42" y1="790.3" x2="926.21" y2="790.3"/>
    <line class="cls-1" x1="453.42" y1="852.06" x2="926.21" y2="852.06"/>
  </g>
</svg>